# xmcd
#
# Track frame offsets: 
#        150
#        10990
#        20695
#        35538
#        46733
#        59428
#        71568
#        84228
#        94743
#        106198
#        116688
#        129670
#        141685
#        153638
#        166050
#        176470
#        185725
#        195893
#
# Disc length: 2756 seconds
#
# Revision: 5
# Processed by: cddbd v1.5.2PL0 Copyright (c) Steve Scherf et al.
# Submitted via: ExactAudioCopyFreeDBPlugin 1.0
#
DISCID=f20ac212
DTITLE=Various Artist - The True Story of Country [CD 2 - Country Gir
DTITLE=l)
DYEAR=1994
DGENRE=Country
TTITLE0=Johnny Russel - King Of The Road
TTITLE1=Dave Dudley - Truck Drivin' Son Of A Gun
TTITLE2=Kingston Trio - Tom Dooley
TTITLE3=Faron Young - Country Girl
TTITLE4=Carl Smith - Let Old Mother Nature Have Her Way
TTITLE5=Porter Wagoner - Satisfied Mind
TTITLE6=Kenny Price - Sheriff Of Boone County
TTITLE7=Stonewall Jackson - Slowly
TTITLE8=Bobby Helms - Jacqueline
TTITLE9=Hank Locklin - Let Me Be The One
TTITLE10=Pee Wee King - Slow Poke
TTITLE11=Hank Thompson - The Wild Side Of Life
TTITLE12=Jack Green - There Goes My Everything
TTITLE13=Claude King - Wolverton Mountain
TTITLE14=David Houston - Have A Little Faith
TTITLE15=Jimmy Dean - The First Thing Every Morning
TTITLE16=Warner Mack - The Bridge Washed Out
TTITLE17=Ferlin Husky - Wings Of A Dove
EXTD=The True Story Of Country - CD 2/3 YEAR: 1994
EXTT0=
EXTT1=
EXTT2=
EXTT3=
EXTT4=
EXTT5=
EXTT6=
EXTT7=
EXTT8=
EXTT9=
EXTT10=
EXTT11=
EXTT12=
EXTT13=
EXTT14=
EXTT15=
EXTT16=
EXTT17=
PLAYORDER=
